<?xml version="1.0" standalone="no"?>
<!DOCTYPE svg PUBLIC "-//W3C//DTD SVG 20010904//EN"
 "http://www.w3.org/TR/2001/REC-SVG-20010904/DTD/svg10.dtd">
<svg version="1.0" xmlns="http://www.w3.org/2000/svg"
 width="700.000000pt" height="700.000000pt" viewBox="0 0 700.000000 700.000000"
 preserveAspectRatio="xMidYMid meet">
<metadata>
Created by potrace 1.14, written by Peter Selinger 2001-2017
</metadata>
<g transform="translate(0.000000,700.000000) scale(0.100000,-0.100000)"
fill="#000000" stroke="none">
<path d="M274 6510 c4 -30 8 -66 11 -80 5 -34 14 -112 20 -185 3 -33 7 -69 10
-80 2 -11 7 -47 10 -80 3 -33 10 -94 15 -135 5 -41 12 -97 15 -125 3 -27 8
-63 10 -80 2 -16 9 -75 15 -130 6 -55 13 -113 15 -130 2 -16 7 -55 10 -85 3
-30 10 -89 15 -130 5 -41 12 -95 14 -120 6 -51 13 -114 21 -180 6 -47 9 -79
19 -170 4 -30 9 -71 11 -90 3 -19 7 -55 10 -80 3 -25 7 -61 10 -80 2 -19 7
-60 10 -90 3 -30 10 -89 15 -130 5 -41 12 -97 15 -125 3 -27 7 -63 9 -80 7
-59 19 -160 21 -185 5 -44 15 -133 25 -210 5 -41 12 -100 15 -130 4 -30 8 -66
10 -80 2 -14 6 -54 10 -90 4 -36 8 -76 10 -90 2 -14 6 -50 10 -80 3 -30 8 -71
10 -90 2 -19 7 -57 10 -85 3 -27 7 -63 9 -80 2 -16 7 -55 10 -85 4 -30 9 -71
11 -90 3 -19 7 -60 10 -90 3 -30 8 -66 10 -80 2 -14 6 -47 9 -75 8 -68 25
-222 30 -265 3 -19 10 -80 16 -135 6 -55 13 -113 16 -130 6 -47 12 -94 19
-172 4 -40 13 -77 19 -82 6 -5 124 -66 261 -136 138 -70 374 -190 525 -267
151 -77 403 -206 560 -285 304 -155 695 -354 1085 -553 l239 -122 226 115
c124 63 356 181 515 262 160 81 394 200 520 265 127 65 374 190 550 280 664
337 850 433 857 439 4 3 10 29 13 56 18 152 25 205 30 255 3 30 7 69 9 85 2
17 7 59 10 95 4 36 9 76 11 90 2 14 7 50 10 80 3 30 8 66 10 80 2 14 7 54 11
90 3 36 8 79 10 95 2 17 6 53 9 80 9 81 17 149 20 167 2 9 7 49 10 89 4 40 8
80 10 88 1 9 6 45 10 81 4 36 9 79 11 95 2 17 6 55 9 85 3 30 8 71 11 91 2 20
7 56 9 80 13 123 16 153 30 257 3 20 7 60 10 87 8 69 34 293 40 335 3 19 7 62
11 95 3 33 7 71 8 85 2 14 6 52 10 85 8 70 15 128 21 170 2 17 6 57 10 90 9
86 20 178 30 260 7 63 14 115 20 175 3 30 8 69 10 85 2 17 9 75 15 130 12 108
18 160 25 215 3 19 7 55 9 80 8 73 16 140 26 220 5 41 12 100 15 130 3 30 17
149 31 264 13 115 22 211 19 214 -3 3 -1457 6 -3231 6 l-3226 1 6 -55z"/>
</g>
</svg>
